<svg width="194" height="53" viewBox="0 0 194 53" fill="none" xmlns="http://www.w3.org/2000/svg">
<g clip-path="url(#clip0_598_1096)">
<path d="M171.36 52.5167C169.027 52.5167 166.91 51.9696 165.008 50.8754C163.106 49.7447 161.599 48.1399 160.487 46.0609C159.374 43.982 158.818 41.5018 158.818 38.6204C158.818 35.7026 159.374 33.2042 160.487 31.1252C161.635 29.0462 163.106 27.4414 164.9 26.3107C166.695 25.1801 168.579 24.6147 170.552 24.6147C173.889 24.6147 176.455 25.7454 178.249 28.0067C180.08 30.2681 180.995 33.2954 180.995 37.0886C180.995 37.5627 180.977 38.0369 180.941 38.511C180.941 38.9487 180.905 39.3317 180.833 39.6599H163.178C163.357 42.4683 164.219 44.7114 165.762 46.3892C167.341 48.067 169.386 48.9058 171.898 48.9058C173.154 48.9058 174.302 48.7235 175.343 48.3588C176.419 47.9575 177.442 47.4469 178.411 46.8269L179.972 49.7812C178.859 50.5107 177.586 51.1489 176.15 51.696C174.751 52.2431 173.154 52.5167 171.36 52.5167ZM163.124 36.432H177.119C177.119 33.733 176.545 31.6905 175.397 30.3046C174.284 28.8821 172.705 28.1709 170.66 28.1709C168.83 28.1709 167.179 28.9003 165.708 30.3593C164.272 31.7817 163.411 33.806 163.124 36.432Z" fill="#1C212E"/>
<path d="M151.537 52.518C148.738 52.518 146.782 51.6973 145.67 50.056C144.593 48.4147 144.055 46.2811 144.055 43.655V28.9381H140.18V25.5461L144.271 25.2725L144.809 17.832H148.523V25.2725H155.574V28.9381H148.523V43.7097C148.523 45.351 148.81 46.6276 149.384 47.5394C149.994 48.4147 151.053 48.8524 152.56 48.8524C153.026 48.8524 153.529 48.7795 154.067 48.6336C154.605 48.4512 155.09 48.2871 155.52 48.1412L156.381 51.5332C155.664 51.7885 154.874 52.0073 154.013 52.1897C153.188 52.4086 152.362 52.518 151.537 52.518Z" fill="#1C212E"/>
<path d="M130.055 51.8616V25.2727H134.469V51.8616H130.055ZM132.316 19.8017C131.455 19.8017 130.737 19.5464 130.163 19.0358C129.625 18.4887 129.355 17.7592 129.355 16.8474C129.355 15.972 129.625 15.2608 130.163 14.7137C130.737 14.1666 131.455 13.8931 132.316 13.8931C133.177 13.8931 133.877 14.1666 134.415 14.7137C134.989 15.2608 135.276 15.972 135.276 16.8474C135.276 17.7592 134.989 18.4887 134.415 19.0358C133.877 19.5464 133.177 19.8017 132.316 19.8017Z" fill="#1C212E"/>
<path fill-rule="evenodd" clip-rule="evenodd" d="M84.1069 32.6024V51.8602H88.5207V32.6024C90.9608 29.8669 93.1498 28.4991 95.0876 28.4991C96.7741 28.4991 98.0121 29.0645 98.8016 30.1951C99.591 31.3258 99.9858 33.1312 99.9858 35.6114V51.8602H104.4V32.6024C106.84 29.8669 109.029 28.4991 110.966 28.4991C112.617 28.4991 113.837 29.0645 114.627 30.1951C115.416 31.3258 115.811 33.1312 115.811 35.6114V51.8602H120.225V35.0096C120.225 31.6176 119.561 29.0462 118.233 27.2955C116.941 25.5083 114.95 24.6147 112.258 24.6147C110.679 24.6147 109.19 25.0889 107.791 26.0372C106.391 26.9855 105.01 28.2073 103.646 29.7027C103.108 28.0979 102.264 26.8578 101.116 25.9825C100.004 25.0707 98.4427 24.6147 96.4332 24.6147C94.8902 24.6147 93.4369 25.0524 92.0733 25.9278C90.7097 26.7667 89.4537 27.8244 88.3054 29.1009L84.1069 32.6024Z" fill="#1C212E"/>
<path d="M52.4529 51.8602V25.2713H56.1131L56.4899 29.1009H56.6514C57.7997 27.8244 59.0557 26.7667 60.4193 25.9278C61.7829 25.0524 63.2362 24.6147 64.7792 24.6147C66.7888 24.6147 68.3497 25.0707 69.4621 25.9825C70.6104 26.8578 71.4537 28.0979 71.992 29.7027C73.3556 28.2073 74.7371 26.9855 76.1366 26.0372C77.5361 25.0889 79.0253 24.6147 80.6042 24.6147C83.2956 24.6147 85.2872 25.5083 86.579 27.2955C87.9067 29.0462 88.5706 31.6176 88.5706 35.0096V51.8602H84.1568V35.6114C84.1568 33.1312 83.7621 31.3258 82.9726 30.1951C82.1832 29.0645 80.9631 28.4991 79.3124 28.4991C77.3747 28.4991 75.1857 29.8669 72.7456 32.6024V51.8602H68.3318V35.6114C68.3318 33.1312 67.9371 31.3258 67.1476 30.1951C66.3581 29.0645 65.1201 28.4991 63.4336 28.4991C61.4958 28.4991 59.3069 29.8669 56.8667 32.6024V51.8602H52.4529Z" fill="#1C212E"/>
<path d="M39.2049 51.8616V25.2727H43.6187V51.8616H39.2049ZM41.4656 19.8017C40.6044 19.8017 39.8867 19.5464 39.3125 19.0358C38.7743 18.4887 38.5051 17.7592 38.5051 16.8474C38.5051 15.972 38.7743 15.2608 39.3125 14.7137C39.8867 14.1666 40.6044 13.8931 41.4656 13.8931C42.3268 13.8931 43.0266 14.1666 43.5648 14.7137C44.139 15.2608 44.4261 15.972 44.4261 16.8474C44.4261 17.7592 44.139 18.4887 43.5648 19.0358C43.0266 19.5464 42.3268 19.8017 41.4656 19.8017Z" fill="#1C212E"/>
<path d="M13.4562 51.8583V15.9688H17.9238V47.9739H33.372V51.8583H13.4562Z" fill="#1C212E"/>
<path d="M194 0H0V51.8602H1.9596V49.3738L1.93613 2.84165L192.017 2.66235L192.04 49.1945V51.8602H194V0Z" fill="#1C212E"/>
</g>
<defs>
<clipPath id="clip0_598_1096">
<rect width="194" height="53" fill="white"/>
</clipPath>
</defs>
</svg>
